<svg width="26" height="26" viewBox="0 0 26 26" fill="none" xmlns="http://www.w3.org/2000/svg">
<path d="M14.0837 17.3333H3.25033C2.96301 17.3333 2.68746 17.4475 2.48429 17.6506C2.28113 17.8538 2.16699 18.1293 2.16699 18.4167C2.16699 18.704 2.28113 18.9795 2.48429 19.1827C2.68746 19.3859 2.96301 19.5 3.25033 19.5H14.0837C14.371 19.5 14.6465 19.3859 14.8497 19.1827C15.0529 18.9795 15.167 18.704 15.167 18.4167C15.167 18.1293 15.0529 17.8538 14.8497 17.6506C14.6465 17.4475 14.371 17.3333 14.0837 17.3333ZM3.25033 8.66667H22.7503C23.0376 8.66667 23.3132 8.55253 23.5164 8.34937C23.7195 8.1462 23.8337 7.87065 23.8337 7.58333C23.8337 7.29602 23.7195 7.02047 23.5164 6.8173C23.3132 6.61414 23.0376 6.5 22.7503 6.5H3.25033C2.96301 6.5 2.68746 6.61414 2.48429 6.8173C2.28113 7.02047 2.16699 7.29602 2.16699 7.58333C2.16699 7.87065 2.28113 8.1462 2.48429 8.34937C2.68746 8.55253 2.96301 8.66667 3.25033 8.66667V8.66667ZM22.7503 11.9167H3.25033C2.96301 11.9167 2.68746 12.0308 2.48429 12.234C2.28113 12.4371 2.16699 12.7127 2.16699 13C2.16699 13.2873 2.28113 13.5629 2.48429 13.766C2.68746 13.9692 2.96301 14.0833 3.25033 14.0833H22.7503C23.0376 14.0833 23.3132 13.9692 23.5164 13.766C23.7195 13.5629 23.8337 13.2873 23.8337 13C23.8337 12.7127 23.7195 12.4371 23.5164 12.234C23.3132 12.0308 23.0376 11.9167 22.7503 11.9167Z" fill="#161616" stroke="#161616" stroke-width="0.5"/>
</svg>
