<svg width="26" height="26" viewBox="0 0 26 26" fill="none" xmlns="http://www.w3.org/2000/svg">
<path d="M5.41699 8.66667H20.5837C20.871 8.66667 21.1465 8.55253 21.3497 8.34937C21.5529 8.1462 21.667 7.87065 21.667 7.58333C21.667 7.29602 21.5529 7.02047 21.3497 6.8173C21.1465 6.61414 20.871 6.5 20.5837 6.5H5.41699C5.12967 6.5 4.85412 6.61414 4.65096 6.8173C4.4478 7.02047 4.33366 7.29602 4.33366 7.58333C4.33366 7.87065 4.4478 8.1462 4.65096 8.34937C4.85412 8.55253 5.12967 8.66667 5.41699 8.66667ZM22.7503 11.9167H3.25033C2.96301 11.9167 2.68746 12.0308 2.48429 12.234C2.28113 12.4371 2.16699 12.7127 2.16699 13C2.16699 13.2873 2.28113 13.5629 2.48429 13.766C2.68746 13.9692 2.96301 14.0833 3.25033 14.0833H22.7503C23.0376 14.0833 23.3132 13.9692 23.5164 13.766C23.7195 13.5629 23.8337 13.2873 23.8337 13C23.8337 12.7127 23.7195 12.4371 23.5164 12.234C23.3132 12.0308 23.0376 11.9167 22.7503 11.9167ZM20.5837 17.3333H5.41699C5.12967 17.3333 4.85412 17.4475 4.65096 17.6506C4.4478 17.8538 4.33366 18.1293 4.33366 18.4167C4.33366 18.704 4.4478 18.9795 4.65096 19.1827C4.85412 19.3859 5.12967 19.5 5.41699 19.5H20.5837C20.871 19.5 21.1465 19.3859 21.3497 19.1827C21.5529 18.9795 21.667 18.704 21.667 18.4167C21.667 18.1293 21.5529 17.8538 21.3497 17.6506C21.1465 17.4475 20.871 17.3333 20.5837 17.3333Z" fill="#161616" stroke="#161616" stroke-width="0.5"/>
</svg>
