<svg width="26" height="26" viewBox="0 0 26 26" fill="none" xmlns="http://www.w3.org/2000/svg">
<path d="M3.25033 7.58341H22.7503C23.0376 7.58341 23.3132 7.46928 23.5164 7.26611C23.7195 7.06295 23.8337 6.7874 23.8337 6.50008C23.8337 6.21276 23.7195 5.93721 23.5164 5.73405C23.3132 5.53088 23.0376 5.41675 22.7503 5.41675H3.25033C2.96301 5.41675 2.68746 5.53088 2.48429 5.73405C2.28113 5.93721 2.16699 6.21276 2.16699 6.50008C2.16699 6.7874 2.28113 7.06295 2.48429 7.26611C2.68746 7.46928 2.96301 7.58341 3.25033 7.58341V7.58341ZM22.7503 18.4167H7.58366C7.29634 18.4167 7.02079 18.5309 6.81763 18.734C6.61446 18.9372 6.50033 19.2128 6.50033 19.5001C6.50033 19.7874 6.61446 20.063 6.81763 20.2661C7.02079 20.4693 7.29634 20.5834 7.58366 20.5834H22.7503C23.0376 20.5834 23.3132 20.4693 23.5164 20.2661C23.7195 20.063 23.8337 19.7874 23.8337 19.5001C23.8337 19.2128 23.7195 18.9372 23.5164 18.734C23.3132 18.5309 23.0376 18.4167 22.7503 18.4167ZM22.7503 9.75008H7.58366C7.29634 9.75008 7.02079 9.86422 6.81763 10.0674C6.61446 10.2705 6.50033 10.5461 6.50033 10.8334C6.50033 11.1207 6.61446 11.3963 6.81763 11.5994C7.02079 11.8026 7.29634 11.9167 7.58366 11.9167H22.7503C23.0376 11.9167 23.3132 11.8026 23.5164 11.5994C23.7195 11.3963 23.8337 11.1207 23.8337 10.8334C23.8337 10.5461 23.7195 10.2705 23.5164 10.0674C23.3132 9.86422 23.0376 9.75008 22.7503 9.75008ZM22.7503 14.0834H3.25033C2.96301 14.0834 2.68746 14.1976 2.48429 14.4007C2.28113 14.6039 2.16699 14.8794 2.16699 15.1667C2.16699 15.4541 2.28113 15.7296 2.48429 15.9328C2.68746 16.1359 2.96301 16.2501 3.25033 16.2501H22.7503C23.0376 16.2501 23.3132 16.1359 23.5164 15.9328C23.7195 15.7296 23.8337 15.4541 23.8337 15.1667C23.8337 14.8794 23.7195 14.6039 23.5164 14.4007C23.3132 14.1976 23.0376 14.0834 22.7503 14.0834Z" fill="#161616" stroke="#161616" stroke-width="0.5"/>
</svg>
