<svg width="26" height="26" viewBox="0 0 26 26" fill="none" xmlns="http://www.w3.org/2000/svg">
<path d="M20.425 19.6C20.575 19.9833 20.5333 20.3167 20.3 20.6C20.0667 20.8833 19.7583 21.0167 19.375 21C19.0083 20.9833 18.7417 20.7833 18.575 20.4L12.75 7H13.25L7.425 20.4C7.25833 20.7667 6.98333 20.9667 6.6 21C6.23333 21.0167 5.93333 20.8833 5.7 20.6C5.46667 20.3167 5.425 19.9833 5.575 19.6L11.575 5.825C11.675 5.55833 11.8417 5.35833 12.075 5.225C12.3083 5.075 12.5667 5 12.85 5H13.175C13.4417 5 13.6917 5.075 13.925 5.225C14.1583 5.35833 14.325 5.55833 14.425 5.825L20.425 19.6ZM17.75 17H8.25V15H17.75V17Z" fill="#161616"/>
<path d="M20.425 19.6L20.658 19.5088L20.6542 19.5002L20.425 19.6ZM20.3 20.6L20.493 20.7589L20.493 20.7589L20.3 20.6ZM19.375 21L19.3636 21.2497L19.3641 21.2498L19.375 21ZM18.575 20.4L18.3457 20.4997L18.3457 20.4997L18.575 20.4ZM12.75 7V6.75H12.3687L12.5207 7.09966L12.75 7ZM13.25 7L13.4793 7.09966L13.6313 6.75H13.25V7ZM7.425 20.4L7.65262 20.5035L7.65427 20.4997L7.425 20.4ZM6.6 21L6.61136 21.25L6.62166 21.2491L6.6 21ZM5.7 20.6L5.50702 20.7589L5.50702 20.7589L5.7 20.6ZM5.575 19.6L5.34564 19.5001L5.34219 19.5089L5.575 19.6ZM11.575 5.825L11.8045 5.92497L11.8091 5.91278L11.575 5.825ZM12.075 5.225L12.1992 5.44236L12.2102 5.43529L12.075 5.225ZM13.925 5.225L13.7896 5.43558L13.801 5.44206L13.925 5.225ZM14.425 5.825L14.1906 5.9129L14.1958 5.92483L14.425 5.825ZM17.75 17V17.25H18V17H17.75ZM8.25 17H8V17.25H8.25V17ZM8.25 15V14.75H8V15H8.25ZM17.75 15H18V14.75H17.75V15ZM20.1922 19.6911C20.314 20.0025 20.2747 20.2374 20.107 20.4411L20.493 20.7589C20.792 20.3959 20.836 19.9642 20.6578 19.5089L20.1922 19.6911ZM20.107 20.4411C19.9262 20.6607 19.6949 20.7637 19.3859 20.7502L19.3641 21.2498C19.8218 21.2697 20.2071 21.106 20.493 20.7589L20.107 20.4411ZM19.3864 20.7503C19.2479 20.744 19.1391 20.7043 19.05 20.6375C18.9591 20.5693 18.8746 20.4622 18.8043 20.3003L18.3457 20.4997C18.442 20.7211 18.5742 20.9057 18.75 21.0375C18.9275 21.1707 19.1354 21.2394 19.3636 21.2497L19.3864 20.7503ZM18.8043 20.3003L12.9793 6.90033L12.5207 7.09966L18.3457 20.4997L18.8043 20.3003ZM12.75 7.25H13.25V6.75H12.75V7.25ZM13.0207 6.90033L7.19573 20.3003L7.65427 20.4997L13.4793 7.09966L13.0207 6.90033ZM7.19741 20.2965C7.06592 20.5858 6.86671 20.7259 6.57834 20.7509L6.62166 21.2491C7.09996 21.2075 7.45074 20.9475 7.65259 20.5035L7.19741 20.2965ZM6.58865 20.7503C6.30059 20.7634 6.07629 20.6637 5.89298 20.4411L5.50702 20.7589C5.79037 21.103 6.16608 21.27 6.61135 21.2497L6.58865 20.7503ZM5.89298 20.4411C5.72529 20.2374 5.68597 20.0025 5.80781 19.6911L5.34219 19.5089C5.16403 19.9642 5.20805 20.3959 5.50702 20.7589L5.89298 20.4411ZM5.8042 19.6998L11.8042 5.92483L11.3458 5.72517L5.3458 19.5002L5.8042 19.6998ZM11.8091 5.91278C11.8899 5.6972 12.0195 5.54464 12.199 5.44206L11.951 5.00794C11.6638 5.17202 11.4601 5.41947 11.3409 5.73722L11.8091 5.91278ZM12.2102 5.43529C12.4023 5.3118 12.6135 5.25 12.85 5.25V4.75C12.5198 4.75 12.2144 4.8382 11.9398 5.0147L12.2102 5.43529ZM12.85 5.25H13.175V4.75H12.85V5.25ZM13.175 5.25C13.3917 5.25 13.5951 5.31012 13.7898 5.43529L14.0602 5.0147C13.7882 4.83988 13.4916 4.75 13.175 4.75V5.25ZM13.801 5.44206C13.9805 5.54464 14.1101 5.6972 14.1909 5.91278L14.6591 5.73722C14.5399 5.41947 14.3362 5.17202 14.049 5.00794L13.801 5.44206ZM14.1958 5.92483L20.1958 19.6998L20.6542 19.5002L14.6542 5.72517L14.1958 5.92483ZM17.75 16.75H8.25V17.25H17.75V16.75ZM8.5 17V15H8V17H8.5ZM8.25 15.25H17.75V14.75H8.25V15.25ZM17.5 15V17H18V15H17.5Z" fill="#161616"/>
</svg>
