<svg width="26" height="26" viewBox="0 0 26 26" fill="none" xmlns="http://www.w3.org/2000/svg">
<path d="M8.03814 16.835C7.83637 17.038 7.72312 17.3126 7.72312 17.5988C7.72312 17.885 7.83637 18.1595 8.03814 18.3625C8.13885 18.464 8.25867 18.5446 8.39068 18.5996C8.5227 18.6546 8.6643 18.683 8.80731 18.683C8.95032 18.683 9.09192 18.6546 9.22393 18.5996C9.35595 18.5446 9.47577 18.464 9.57648 18.3625C9.77825 18.1595 9.8915 17.885 9.8915 17.5988C9.8915 17.3126 9.77825 17.038 9.57648 16.835C9.47577 16.7335 9.35595 16.6529 9.22393 16.5979C9.09192 16.5429 8.95032 16.5146 8.80731 16.5146C8.6643 16.5146 8.5227 16.5429 8.39068 16.5979C8.25867 16.6529 8.13885 16.7335 8.03814 16.835V16.835ZM8.03814 7.63751C7.83637 7.84048 7.72312 8.11506 7.72312 8.40126C7.72312 8.68746 7.83637 8.96203 8.03814 9.16501C8.13885 9.26655 8.25867 9.34714 8.39068 9.40214C8.5227 9.45714 8.6643 9.48546 8.80731 9.48546C8.95032 9.48546 9.09192 9.45714 9.22393 9.40214C9.35595 9.34714 9.47577 9.26655 9.57648 9.16501C9.77825 8.96203 9.8915 8.68746 9.8915 8.40126C9.8915 8.11506 9.77825 7.84048 9.57648 7.63751C9.47577 7.53597 9.35595 7.45538 9.22393 7.40038C9.09192 7.34538 8.95032 7.31706 8.80731 7.31706C8.6643 7.31706 8.5227 7.34538 8.39068 7.40038C8.25867 7.45538 8.13885 7.53597 8.03814 7.63751ZM13.4006 18.4708C13.1864 18.4708 12.9769 18.5344 12.7988 18.6534C12.6206 18.7725 12.4818 18.9416 12.3998 19.1396C12.3178 19.3376 12.2963 19.5554 12.3381 19.7655C12.3799 19.9757 12.4831 20.1687 12.6346 20.3202C12.7861 20.4717 12.9791 20.5749 13.1893 20.6167C13.3994 20.6585 13.6173 20.637 13.8152 20.555C14.0132 20.473 14.1824 20.3342 14.3014 20.156C14.4204 19.9779 14.484 19.7684 14.484 19.5542C14.4913 19.4074 14.4687 19.2607 14.4176 19.1229C14.3665 18.9852 14.2878 18.8593 14.1865 18.7529C14.0851 18.6465 13.9632 18.5618 13.8281 18.504C13.693 18.4462 13.5476 18.4165 13.4006 18.4167V18.4708ZM6.90064 11.9708C6.68638 11.9708 6.47693 12.0344 6.29877 12.1534C6.12062 12.2725 5.98177 12.4416 5.89977 12.6396C5.81778 12.8376 5.79632 13.0554 5.83812 13.2655C5.87993 13.4757 5.9831 13.6687 6.13461 13.8202C6.28612 13.9717 6.47915 14.0749 6.68929 14.1167C6.89944 14.1585 7.11726 14.137 7.31522 14.055C7.51317 13.973 7.68236 13.8342 7.8014 13.656C7.92044 13.4779 7.98398 13.2684 7.98398 13.0542C7.99132 12.9074 7.96874 12.7607 7.91759 12.6229C7.86645 12.4852 7.78782 12.3593 7.68648 12.2529C7.58514 12.1465 7.46322 12.0618 7.32812 12.004C7.19302 11.9462 7.04758 11.9165 6.90064 11.9167V11.9708ZM13.4006 5.47084C13.1864 5.47084 12.9769 5.53438 12.7988 5.65342C12.6206 5.77245 12.4818 5.94165 12.3998 6.1396C12.3178 6.33755 12.2963 6.55538 12.3381 6.76552C12.3799 6.97567 12.4831 7.1687 12.6346 7.32021C12.7861 7.47171 12.9791 7.57489 13.1893 7.61669C13.3994 7.65849 13.6173 7.63704 13.8152 7.55504C14.0132 7.47305 14.1824 7.3342 14.3014 7.15604C14.4204 6.97789 14.484 6.76844 14.484 6.55417C14.4913 6.40742 14.4687 6.2607 14.4176 6.12295C14.3665 5.98519 14.2878 5.85929 14.1865 5.75288C14.0851 5.64648 13.9632 5.5618 13.8281 5.504C13.693 5.4462 13.5476 5.41649 13.4006 5.41667V5.47084ZM17.2356 7.69167C17.0835 7.84292 16.9797 8.03594 16.9373 8.24626C16.895 8.45659 16.9161 8.67474 16.9979 8.87307C17.0797 9.0714 17.2186 9.24097 17.3969 9.36029C17.5751 9.47962 17.7849 9.54332 17.9994 9.54332C18.2139 9.54332 18.4236 9.47962 18.6019 9.36029C18.7802 9.24097 18.9191 9.0714 19.0009 8.87307C19.0827 8.67474 19.1038 8.45659 19.0614 8.24626C19.0191 8.03594 18.9153 7.84292 18.7631 7.69167C18.5674 7.48254 18.2968 7.35944 18.0106 7.34929C17.7243 7.33914 17.4457 7.44277 17.2356 7.63751V7.69167ZM24.0606 7.69167C23.0702 5.71166 21.5478 4.04671 19.664 2.88352C17.7803 1.72032 15.6098 1.10488 13.3959 1.1062C11.182 1.10753 9.01219 1.72556 7.12986 2.89101C5.24753 4.05645 3.72707 5.72322 2.739 7.70442C1.75092 9.68561 1.33428 11.9029 1.53581 14.1076C1.73733 16.3123 2.54906 18.4173 3.87995 20.1866C5.21084 21.9558 7.00828 23.3193 9.07071 24.1241C11.1331 24.929 13.379 25.1434 15.5565 24.7433C16.104 24.6403 16.6256 24.4292 17.0906 24.1222C17.5556 23.8153 17.9548 23.4188 18.2648 22.9558C18.5989 22.4525 18.8293 21.8877 18.9428 21.2944C19.0562 20.7011 19.0504 20.0911 18.9256 19.5C18.8574 19.1428 18.8212 18.7803 18.8173 18.4167C18.8221 17.3669 19.1318 16.3411 19.7087 15.4641C20.2857 14.587 21.1051 13.8966 22.0673 13.4767C22.5861 13.2444 23.0517 12.9083 23.4356 12.489C23.8194 12.0698 24.1133 11.5764 24.299 11.0392C24.4868 10.4902 24.5625 9.90916 24.5216 9.33042C24.4806 8.75167 24.3239 8.18704 24.0606 7.67001V7.69167ZM22.219 10.335C22.1265 10.5943 21.983 10.8324 21.7969 11.0352C21.6109 11.238 21.386 11.4014 21.1356 11.5158C19.8031 12.1123 18.6711 13.0808 17.8755 14.3049C17.0799 15.529 16.6546 16.9567 16.6506 18.4167C16.6522 18.9259 16.703 19.4338 16.8023 19.9333C16.8685 20.2386 16.8728 20.5541 16.8152 20.8611C16.7575 21.1681 16.6389 21.4604 16.4665 21.7208C16.3206 21.9488 16.1285 22.1436 15.9028 22.2929C15.677 22.4422 15.4225 22.5425 15.1556 22.5875C14.577 22.6963 13.9894 22.7507 13.4006 22.75C12.0943 22.7506 10.8012 22.4888 9.59806 21.9799C8.39492 21.4711 7.3063 20.7256 6.39685 19.7879C5.4874 18.8502 4.77566 17.7392 4.30391 16.5211C3.83215 15.3029 3.61 14.0024 3.65064 12.6967C3.73472 10.2622 4.72206 7.94621 6.42032 6.19988C8.11858 4.45356 10.4061 3.40198 12.8373 3.25001H13.3898C15.2052 3.25046 16.9844 3.75775 18.5271 4.71475C20.0698 5.67174 21.3146 7.04043 22.1215 8.66667C22.3698 9.18124 22.4049 9.77307 22.219 10.3133V10.335ZM13.4006 11.9167C13.1864 11.9167 12.9769 11.9802 12.7988 12.0992C12.6206 12.2183 12.4818 12.3875 12.3998 12.5854C12.3178 12.7834 12.2963 13.0012 12.3381 13.2114C12.3799 13.4215 12.4831 13.6145 12.6346 13.766C12.7861 13.9175 12.9791 14.0207 13.1893 14.0625C13.3994 14.1043 13.6173 14.0829 13.8152 14.0009C14.0132 13.9189 14.1824 13.78 14.3014 13.6019C14.4204 13.4237 14.484 13.2143 14.484 13C14.484 12.7127 14.3698 12.4371 14.1667 12.234C13.9635 12.0308 13.688 11.9167 13.4006 11.9167Z" fill="#161616" stroke="#161616" stroke-width="0.5"/>
</svg>
