<svg width="26" height="26" viewBox="0 0 26 26" fill="none" xmlns="http://www.w3.org/2000/svg">
<path d="M22.75 9.68508C22.7387 9.58556 22.7169 9.48751 22.685 9.39258V9.29508C22.6329 9.18369 22.5634 9.0813 22.4792 8.99175L15.9792 2.49175C15.8896 2.40748 15.7872 2.338 15.6758 2.28591C15.6435 2.28132 15.6107 2.28132 15.5783 2.28591C15.4683 2.2228 15.3467 2.18229 15.2208 2.16675H10.8333C9.97138 2.16675 9.14473 2.50916 8.53524 3.11865C7.92574 3.72814 7.58333 4.55479 7.58333 5.41675V6.50008H6.5C5.63805 6.50008 4.8114 6.84249 4.2019 7.45198C3.59241 8.06148 3.25 8.88813 3.25 9.75008V20.5834C3.25 21.4454 3.59241 22.272 4.2019 22.8815C4.8114 23.491 5.63805 23.8334 6.5 23.8334H15.1667C16.0286 23.8334 16.8553 23.491 17.4648 22.8815C18.0743 22.272 18.4167 21.4454 18.4167 20.5834V19.5001H19.5C20.362 19.5001 21.1886 19.1577 21.7981 18.5482C22.4076 17.9387 22.75 17.112 22.75 16.2501V9.75008C22.75 9.75008 22.75 9.75008 22.75 9.68508ZM16.25 5.86091L19.0558 8.66675H17.3333C17.046 8.66675 16.7705 8.55261 16.5673 8.34945C16.3641 8.14628 16.25 7.87073 16.25 7.58342V5.86091ZM16.25 20.5834C16.25 20.8707 16.1359 21.1463 15.9327 21.3494C15.7295 21.5526 15.454 21.6667 15.1667 21.6667H6.5C6.21268 21.6667 5.93713 21.5526 5.73397 21.3494C5.5308 21.1463 5.41667 20.8707 5.41667 20.5834V9.75008C5.41667 9.46276 5.5308 9.18721 5.73397 8.98405C5.93713 8.78089 6.21268 8.66675 6.5 8.66675H7.58333V16.2501C7.58333 17.112 7.92574 17.9387 8.53524 18.5482C9.14473 19.1577 9.97138 19.5001 10.8333 19.5001H16.25V20.5834ZM20.5833 16.2501C20.5833 16.5374 20.4692 16.8129 20.266 17.0161C20.0629 17.2193 19.7873 17.3334 19.5 17.3334H10.8333C10.546 17.3334 10.2705 17.2193 10.0673 17.0161C9.86414 16.8129 9.75 16.5374 9.75 16.2501V5.41675C9.75 5.12943 9.86414 4.85388 10.0673 4.65072C10.2705 4.44755 10.546 4.33341 10.8333 4.33341H14.0833V7.58342C14.0833 8.44537 14.4257 9.27202 15.0352 9.88151C15.6447 10.491 16.4714 10.8334 17.3333 10.8334H20.5833V16.2501Z" fill="white" stroke="white" stroke-width="0.5"/>
</svg>
