<svg width="24" height="24" viewBox="0 0 24 24" fill="none" xmlns="http://www.w3.org/2000/svg">
<path d="M19.425 18.6C19.575 18.9833 19.5333 19.3167 19.3 19.6C19.0667 19.8833 18.7583 20.0167 18.375 20C18.0083 19.9833 17.7417 19.7833 17.575 19.4L11.75 6H12.25L6.425 19.4C6.25833 19.7667 5.98333 19.9667 5.6 20C5.23333 20.0167 4.93333 19.8833 4.7 19.6C4.46667 19.3167 4.425 18.9833 4.575 18.6L10.575 4.825C10.675 4.55833 10.8417 4.35833 11.075 4.225C11.3083 4.075 11.5667 4 11.85 4H12.175C12.4417 4 12.6917 4.075 12.925 4.225C13.1583 4.35833 13.325 4.55833 13.425 4.825L19.425 18.6ZM16.75 16H7.25V14H16.75V16Z" fill="white"/>
</svg>
