<svg width="24" height="24" viewBox="0 0 24 24" fill="none" xmlns="http://www.w3.org/2000/svg">
<path d="M19.425 18.6C19.575 18.9833 19.5333 19.3167 19.3 19.6C19.0667 19.8833 18.7583 20.0167 18.375 20C18.0083 19.9833 17.7417 19.7833 17.575 19.4L11.75 6H12.25L6.425 19.4C6.25833 19.7667 5.98333 19.9667 5.6 20C5.23333 20.0167 4.93333 19.8833 4.7 19.6C4.46667 19.3167 4.425 18.9833 4.575 18.6L10.575 4.825C10.675 4.55833 10.8417 4.35833 11.075 4.225C11.3083 4.075 11.5667 4 11.85 4H12.175C12.4417 4 12.6917 4.075 12.925 4.225C13.1583 4.35833 13.325 4.55833 13.425 4.825L19.425 18.6ZM16.75 16H7.25V14H16.75V16Z" fill="white"/>
<path d="M19.425 18.6L19.7975 18.4542L19.7947 18.4472L19.7917 18.4403L19.425 18.6ZM19.3 19.6L19.6088 19.8543L19.6088 19.8543L19.3 19.6ZM18.375 20L18.3568 20.3996L18.3576 20.3996L18.375 20ZM17.575 19.4L17.2082 19.5595L17.2082 19.5595L17.575 19.4ZM11.75 6V5.6H11.14L11.3832 6.15946L11.75 6ZM12.25 6L12.6168 6.15946L12.86 5.6H12.25V6ZM6.425 19.4L6.7892 19.5655L6.79184 19.5595L6.425 19.4ZM5.6 20L5.61816 20.3996L5.62642 20.3992L5.63465 20.3985L5.6 20ZM4.7 19.6L4.39123 19.8543L4.39123 19.8543L4.7 19.6ZM4.575 18.6L4.20828 18.4403L4.20526 18.4472L4.2025 18.4542L4.575 18.6ZM10.575 4.825L10.9417 4.98473L10.9459 4.97519L10.9495 4.96545L10.575 4.825ZM11.075 4.225L11.2735 4.5723L11.2825 4.56712L11.2913 4.56147L11.075 4.225ZM12.925 4.225L12.7087 4.56147L12.7175 4.56712L12.7265 4.5723L12.925 4.225ZM13.425 4.825L13.0505 4.96545L13.0541 4.97519L13.0583 4.98473L13.425 4.825ZM16.75 16V16.4H17.15V16H16.75ZM7.25 16H6.85V16.4H7.25V16ZM7.25 14V13.6H6.85V14H7.25ZM16.75 14H17.15V13.6H16.75V14ZM19.0525 18.7458C19.1575 19.014 19.1195 19.1899 18.9912 19.3457L19.6088 19.8543C19.9471 19.4434 19.9925 18.9527 19.7975 18.4542L19.0525 18.7458ZM18.9912 19.3457C18.8419 19.527 18.6569 19.6119 18.3924 19.6004L18.3576 20.3996C18.8598 20.4215 19.2914 20.2396 19.6088 19.8543L18.9912 19.3457ZM18.3932 19.6004C18.2816 19.5953 18.2026 19.5644 18.14 19.5175C18.0745 19.4684 18.0044 19.3845 17.9418 19.2405L17.2082 19.5595C17.3122 19.7988 17.4588 20.0066 17.66 20.1575C17.8641 20.3106 18.1017 20.388 18.3568 20.3996L18.3932 19.6004ZM17.9418 19.2405L12.1168 5.84053L11.3832 6.15946L17.2082 19.5595L17.9418 19.2405ZM11.75 6.4H12.25V5.6H11.75V6.4ZM11.8832 5.84053L6.05816 19.2405L6.79184 19.5595L12.6168 6.15946L11.8832 5.84053ZM6.06085 19.2345C5.95048 19.4773 5.79674 19.5814 5.56535 19.6015L5.63465 20.3985C6.16993 20.352 6.56619 20.056 6.78915 19.5655L6.06085 19.2345ZM5.58184 19.6004C5.34094 19.6114 5.16207 19.5319 5.00877 19.3457L4.39123 19.8543C4.7046 20.2348 5.12572 20.422 5.61816 20.3996L5.58184 19.6004ZM5.00877 19.3457C4.88046 19.1899 4.84255 19.014 4.9475 18.7458L4.2025 18.4542C4.00745 18.9527 4.05287 19.4434 4.39123 19.8543L5.00877 19.3457ZM4.94172 18.7597L10.9417 4.98473L10.2083 4.66527L4.20828 18.4403L4.94172 18.7597ZM10.9495 4.96545C11.0189 4.78052 11.1262 4.65643 11.2735 4.5723L10.8765 3.8777C10.5571 4.06024 10.3311 4.33615 10.2005 4.68455L10.9495 4.96545ZM11.2913 4.56147C11.4587 4.45388 11.6416 4.4 11.85 4.4V3.6C11.4917 3.6 11.158 3.69612 10.8587 3.88853L11.2913 4.56147ZM11.85 4.4H12.175V3.6H11.85V4.4ZM12.175 4.4C12.3618 4.4 12.5372 4.45119 12.7087 4.56147L13.1413 3.88853C12.8462 3.69881 12.5216 3.6 12.175 3.6V4.4ZM12.7265 4.5723C12.8738 4.65643 12.9811 4.78052 13.0505 4.96545L13.7995 4.68455C13.6689 4.33615 13.4429 4.06024 13.1235 3.8777L12.7265 4.5723ZM13.0583 4.98473L19.0583 18.7597L19.7917 18.4403L13.7917 4.66527L13.0583 4.98473ZM16.75 15.6H7.25V16.4H16.75V15.6ZM7.65 16V14H6.85V16H7.65ZM7.25 14.4H16.75V13.6H7.25V14.4ZM16.35 14V16H17.15V14H16.35Z" fill="white"/>
</svg>
