<svg width="26" height="26" viewBox="0 0 26 26" fill="none" xmlns="http://www.w3.org/2000/svg">
<path d="M12.9997 14.0834C12.6699 14.0796 12.3468 14.1768 12.0739 14.3622C11.801 14.5475 11.5915 14.8119 11.4735 15.12C11.3555 15.428 11.3347 15.7647 11.4138 16.0849C11.493 16.4051 11.6684 16.6934 11.9163 16.9109V18.4167C11.9163 18.7041 12.0305 18.9796 12.2336 19.1828C12.4368 19.3859 12.7124 19.5001 12.9997 19.5001C13.287 19.5001 13.5625 19.3859 13.7657 19.1828C13.9689 18.9796 14.083 18.7041 14.083 18.4167V16.9109C14.331 16.6934 14.5063 16.4051 14.5855 16.0849C14.6647 15.7647 14.6439 15.428 14.5259 15.12C14.4078 14.8119 14.1983 14.5475 13.9254 14.3622C13.6526 14.1768 13.3295 14.0796 12.9997 14.0834V14.0834ZM18.4163 9.75008V7.58341C18.4163 6.14683 17.8457 4.76908 16.8298 3.75325C15.814 2.73743 14.4363 2.16675 12.9997 2.16675C11.5631 2.16675 10.1853 2.73743 9.16951 3.75325C8.15369 4.76908 7.58301 6.14683 7.58301 7.58341V9.75008C6.72105 9.75008 5.8944 10.0925 5.28491 10.702C4.67542 11.3115 4.33301 12.1381 4.33301 13.0001V20.5834C4.33301 21.4454 4.67542 22.272 5.28491 22.8815C5.8944 23.491 6.72105 23.8334 7.58301 23.8334H18.4163C19.2783 23.8334 20.1049 23.491 20.7144 22.8815C21.3239 22.272 21.6663 21.4454 21.6663 20.5834V13.0001C21.6663 12.1381 21.3239 11.3115 20.7144 10.702C20.1049 10.0925 19.2783 9.75008 18.4163 9.75008ZM9.74967 7.58341C9.74967 6.72146 10.0921 5.89481 10.7016 5.28532C11.3111 4.67582 12.1377 4.33341 12.9997 4.33341C13.8616 4.33341 14.6883 4.67582 15.2978 5.28532C15.9073 5.89481 16.2497 6.72146 16.2497 7.58341V9.75008H9.74967V7.58341ZM19.4997 20.5834C19.4997 20.8707 19.3855 21.1463 19.1824 21.3494C18.9792 21.5526 18.7037 21.6667 18.4163 21.6667H7.58301C7.29569 21.6667 7.02014 21.5526 6.81698 21.3494C6.61381 21.1463 6.49967 20.8707 6.49967 20.5834V13.0001C6.49967 12.7128 6.61381 12.4372 6.81698 12.234C7.02014 12.0309 7.29569 11.9167 7.58301 11.9167H18.4163C18.7037 11.9167 18.9792 12.0309 19.1824 12.234C19.3855 12.4372 19.4997 12.7128 19.4997 13.0001V20.5834Z" fill="#161616" stroke="#161616" stroke-width="0.5"/>
</svg>
