<svg width="26" height="26" viewBox="0 0 26 26" fill="none" xmlns="http://www.w3.org/2000/svg">
<path d="M12.9997 14.0832C12.6699 14.0794 12.3468 14.1767 12.0739 14.362C11.801 14.5473 11.5915 14.8118 11.4735 15.1198C11.3555 15.4278 11.3347 15.7646 11.4138 16.0848C11.493 16.405 11.6684 16.6932 11.9163 16.9107V18.4166C11.9163 18.7039 12.0305 18.9794 12.2336 19.1826C12.4368 19.3858 12.7124 19.4999 12.9997 19.4999C13.287 19.4999 13.5625 19.3858 13.7657 19.1826C13.9689 18.9794 14.083 18.7039 14.083 18.4166V16.9107C14.331 16.6932 14.5063 16.405 14.5855 16.0848C14.6647 15.7646 14.6439 15.4278 14.5259 15.1198C14.4078 14.8118 14.1983 14.5473 13.9254 14.362C13.6526 14.1767 13.3295 14.0794 12.9997 14.0832V14.0832ZM18.4163 9.74991H9.74967V7.58325C9.74809 6.93995 9.93746 6.31065 10.2938 5.77506C10.6501 5.23946 11.1574 4.82166 11.7513 4.57457C12.3453 4.32748 12.9992 4.26221 13.6303 4.38703C14.2613 4.51185 14.8412 4.82115 15.2963 5.27575C15.7036 5.69182 15.9949 6.20722 16.1413 6.77075C16.1769 6.90874 16.2393 7.03838 16.325 7.15227C16.4106 7.26615 16.5179 7.36204 16.6406 7.43447C16.7634 7.5069 16.8992 7.55445 17.0403 7.5744C17.1814 7.59435 17.325 7.58631 17.463 7.55075C17.601 7.51518 17.7306 7.45278 17.8445 7.36711C17.9584 7.28145 18.0543 7.17419 18.1267 7.05146C18.1992 6.92873 18.2467 6.79294 18.2667 6.65183C18.2866 6.51073 18.2786 6.36708 18.243 6.22908C17.9962 5.29178 17.5067 4.43609 16.8238 3.74825C16.0657 2.99248 15.1006 2.47829 14.0505 2.27063C13.0003 2.06296 11.9122 2.17112 10.9234 2.58145C9.93469 2.99178 9.08971 3.68588 8.49518 4.5761C7.90065 5.46632 7.58323 6.51275 7.58301 7.58325V9.74991C6.72105 9.74991 5.8944 10.0923 5.28491 10.7018C4.67542 11.3113 4.33301 12.138 4.33301 12.9999V20.5832C4.33301 21.4452 4.67542 22.2719 5.28491 22.8813C5.8944 23.4908 6.72105 23.8332 7.58301 23.8332H18.4163C19.2783 23.8332 20.1049 23.4908 20.7144 22.8813C21.3239 22.2719 21.6663 21.4452 21.6663 20.5832V12.9999C21.6663 12.138 21.3239 11.3113 20.7144 10.7018C20.1049 10.0923 19.2783 9.74991 18.4163 9.74991ZM19.4997 20.5832C19.4997 20.8706 19.3855 21.1461 19.1824 21.3493C18.9792 21.5524 18.7037 21.6666 18.4163 21.6666H7.58301C7.29569 21.6666 7.02014 21.5524 6.81698 21.3493C6.61381 21.1461 6.49967 20.8706 6.49967 20.5832V12.9999C6.49967 12.7126 6.61381 12.437 6.81698 12.2339C7.02014 12.0307 7.29569 11.9166 7.58301 11.9166H18.4163C18.7037 11.9166 18.9792 12.0307 19.1824 12.2339C19.3855 12.437 19.4997 12.7126 19.4997 12.9999V20.5832Z" fill="#161616" stroke="#161616" stroke-width="0.5"/>
</svg>
